<svg xmlns="http://www.w3.org/2000/svg" viewBox="0 0 155.68 191.18"><defs><style>.cls-1{fill:#b5e1e0;}</style></defs><title>Logo</title><g id="Layer_2" data-name="Layer 2"><g id="Layer_1-2" data-name="Layer 1"><path class="cls-1" d="M54,164.1a27,27,0,1,1-54-.26,26.8,26.8,0,0,1,27.19-27A26.65,26.65,0,0,1,54,164.1"/><path class="cls-1" d="M154.74,122.18c-3.84-16.64-14.69-26.7-31.23-30.44-10.58-2.39-17.1-11.5-15.56-22.21,1-7,2.57-14.07,2.62-21.11C110.78,21.84,88.71.15,62.09,0c-3.1.34-6.23.52-9.3,1.06-20.33,3.57-37.4,22.22-39,42.55A49.48,49.48,0,0,0,51.1,96.15c4.37,1.13,8.86,1.77,13.27,2.77,10.81,2.44,16.91,11.9,15.06,22.81-4.25,25,14.09,45.76,36.36,46.53,24.65.85,44.5-22,39-46.08M68.94,57.11a21,21,0,1,1,21-21,20.95,20.95,0,0,1-21,21"/></g></g></svg>