<svg xmlns="http://www.w3.org/2000/svg" viewBox="0 0 37.59 46.17"><defs><style>.cls-1{fill:#b5e1e0;}</style></defs><title>Logo-small</title><g id="Layer_2" data-name="Layer 2"><g id="Layer_1-2" data-name="Layer 1"><path class="cls-1" d="M13.05,39.63a6.53,6.53,0,1,1-13-.07,6.47,6.47,0,0,1,6.57-6.5,6.43,6.43,0,0,1,6.48,6.57"/><path class="cls-1" d="M37.37,29.5a9.3,9.3,0,0,0-7.55-7.35,4.68,4.68,0,0,1-3.75-5.36,38.6,38.6,0,0,0,.63-5.1A11.74,11.74,0,0,0,15,0c-.75.08-1.5.13-2.24.26A11.83,11.83,0,0,0,3.32,10.53a12,12,0,0,0,9,12.69c1.05.27,2.14.43,3.2.67a4.63,4.63,0,0,1,3.64,5.51A9.44,9.44,0,0,0,28,40.63,9.26,9.26,0,0,0,37.37,29.5M16.65,13.79a5.06,5.06,0,1,1,5.06-5.06,5.06,5.06,0,0,1-5.06,5.06"/></g></g></svg>